# Blender v2.83.20 OBJ File: ''
# www.blender.org
mtllib left_outer_knuckle.mtl
o Left_Outer_Knuckle
v 0.005900 -0.010470 0.005134
v 0.005900 -0.009455 -0.006824
v 0.005900 -0.003650 -0.001635
v 0.005900 0.051464 0.023337
v 0.005900 0.050923 0.025212
v 0.005900 0.035292 0.028483
v 0.005900 0.050303 0.019691
v 0.005900 0.051246 0.021399
v 0.005900 0.048779 0.018474
v 0.005900 0.034751 0.030358
v 0.005900 0.044240 0.038133
v 0.005900 0.033581 0.032621
v 0.005900 0.003998 -0.000110
v 0.005900 0.003555 -0.001834
v 0.005900 0.004700 -0.004324
v 0.005900 0.002407 -0.003195
v 0.005900 0.001604 -0.005558
v 0.005900 0.000782 -0.003923
v 0.005900 -0.001673 -0.006163
v 0.005900 -0.000997 -0.003874
v 0.005900 -0.002579 -0.003057
v 0.005900 0.000997 0.003874
v 0.005900 0.032607 0.023620
v 0.005900 -0.000782 0.003923
v 0.005900 -0.000813 0.006335
v 0.005900 -0.002407 0.003195
v 0.005900 -0.002687 0.005794
v 0.005900 -0.003555 0.001834
v 0.005900 -0.003998 0.000110
v 0.005900 0.035075 0.026545
v 0.005900 0.034132 0.024837
v 0.005900 0.003650 0.001635
v 0.005900 0.002579 0.003057
v -0.004500 0.033581 0.032621
v -0.005900 0.033581 0.032621
v -0.005900 0.034751 0.030358
v 0.004500 0.033581 0.032621
v 0.004500 0.030135 0.039282
v -0.004500 0.030135 0.039282
v 0.004500 0.044240 0.038133
v -0.005900 0.050923 0.025212
v -0.005900 0.044240 0.038133
v -0.004500 0.044240 0.038133
v -0.004500 0.040794 0.044795
v 0.004500 0.040794 0.044795
v 0.003900 -0.010470 0.005134
v -0.005900 -0.002687 0.005794
v -0.005900 -0.010470 0.005134
v -0.003900 -0.010470 0.005134
v -0.003900 -0.020436 0.004288
v 0.003900 -0.020436 0.004288
v -0.005900 0.048779 0.018474
v -0.005900 0.004700 -0.004324
v -0.005900 0.003555 -0.001834
v -0.005900 -0.009455 -0.006824
v -0.005900 -0.002579 -0.003057
v -0.005900 -0.001673 -0.006163
v -0.005900 -0.000997 -0.003874
v -0.005900 0.001604 -0.005558
v -0.005900 0.000782 -0.003923
v -0.005900 0.002407 -0.003195
v -0.005900 0.051246 0.021399
v -0.005900 0.050303 0.019691
v -0.005900 0.051464 0.023337
v -0.005900 0.032607 0.023620
v -0.005900 0.034132 0.024837
v -0.005900 0.035075 0.026545
v -0.005900 0.035292 0.028483
v -0.005900 -0.003998 0.000110
v -0.005900 -0.003650 -0.001635
v -0.005900 0.003998 -0.000110
v -0.005900 0.003650 0.001635
v -0.005900 0.002579 0.003057
v -0.005900 0.000997 0.003874
v -0.005900 -0.000813 0.006335
v -0.005900 -0.000782 0.003923
v -0.005900 -0.002407 0.003195
v -0.005900 -0.003555 0.001834
v -0.003900 -0.022450 0.003754
v 0.003900 -0.022450 0.003754
v -0.003900 -0.024160 0.002564
v 0.003900 -0.024160 0.002564
v -0.003900 -0.025360 0.000860
v 0.003900 -0.025360 0.000860
v -0.003900 -0.025904 -0.001152
v 0.003900 -0.025904 -0.001152
v -0.003900 -0.025728 -0.003228
v 0.003900 -0.025728 -0.003228
v -0.003900 -0.024852 -0.005119
v 0.003900 -0.024852 -0.005119
v -0.003900 -0.023383 -0.006596
v 0.003900 -0.023383 -0.006596
v -0.003900 -0.021497 -0.007482
v 0.003900 -0.021497 -0.007482
v -0.003900 -0.019421 -0.007669
v 0.003900 -0.019421 -0.007669
v 0.003900 -0.009455 -0.006824
v -0.003900 -0.009455 -0.006824
v 0.003900 -0.022508 -0.004748
v -0.003900 -0.022508 -0.004748
v 0.003900 -0.023579 -0.003326
v -0.003900 -0.023579 -0.003326
v 0.003900 -0.023927 -0.001580
v -0.003900 -0.023927 -0.001580
v 0.003900 -0.023483 0.000144
v -0.003900 -0.023483 0.000144
v 0.003900 -0.022335 0.001505
v -0.003900 -0.022335 0.001505
v 0.003900 -0.020711 0.002232
v -0.003900 -0.020711 0.002232
v 0.003900 -0.018931 0.002183
v -0.003900 -0.018931 0.002183
v 0.003900 -0.017349 0.001367
v -0.003900 -0.017349 0.001367
v 0.003900 -0.016278 -0.000055
v -0.003900 -0.016278 -0.000055
v 0.003900 -0.015930 -0.001801
v -0.003900 -0.015930 -0.001801
v 0.003900 -0.016374 -0.003525
v -0.003900 -0.016374 -0.003525
v 0.003900 -0.017522 -0.004885
v -0.003900 -0.017522 -0.004885
v 0.003900 -0.019146 -0.005613
v -0.003900 -0.019146 -0.005613
v 0.003900 -0.020926 -0.005564
v -0.003900 -0.020926 -0.005564
v 0.002900 0.000955 -0.000806
v 0.002900 0.003555 -0.001834
v 0.002900 0.001230 -0.000220
v 0.002900 0.003998 -0.000110
v 0.002900 0.001176 0.000424
v 0.002900 0.003650 0.001635
v 0.002900 0.000806 0.000955
v 0.002900 0.002579 0.003057
v 0.002900 0.000220 0.001230
v 0.002900 0.000997 0.003874
v 0.002900 -0.000424 0.001176
v 0.002900 -0.000782 0.003923
v 0.002900 -0.000955 0.000806
v 0.002900 -0.002407 0.003195
v 0.002900 -0.003555 0.001834
v 0.002900 -0.001230 0.000220
v 0.002900 -0.003998 0.000110
v 0.002900 -0.001176 -0.000424
v 0.002900 -0.003650 -0.001635
v 0.002900 -0.000806 -0.000955
v 0.002900 -0.002579 -0.003057
v 0.002900 -0.000220 -0.001230
v 0.002900 -0.000997 -0.003874
v 0.002900 0.000424 -0.001176
v 0.002900 0.000782 -0.003923
v 0.002900 0.002407 -0.003195
v -0.002900 -0.001230 0.000220
v -0.002900 -0.003555 0.001834
v -0.002900 -0.000955 0.000806
v -0.002900 -0.002407 0.003195
v -0.002900 -0.000424 0.001176
v -0.002900 -0.000782 0.003923
v -0.002900 0.000220 0.001230
v -0.002900 0.000997 0.003874
v -0.002900 0.000806 0.000955
v -0.002900 0.002579 0.003057
v -0.002900 0.001176 0.000424
v -0.002900 0.003650 0.001635
v -0.002900 0.001230 -0.000220
v -0.002900 0.003998 -0.000110
v -0.002900 0.003555 -0.001834
v -0.002900 0.000955 -0.000806
v -0.002900 0.002407 -0.003195
v -0.002900 0.000424 -0.001176
v -0.002900 0.000782 -0.003923
v -0.002900 -0.000220 -0.001230
v -0.002900 -0.000997 -0.003874
v -0.002900 -0.000806 -0.000955
v -0.002900 -0.002579 -0.003057
v -0.002900 -0.001176 -0.000424
v -0.002900 -0.003650 -0.001635
v -0.002900 -0.003998 0.000110
v 0.004500 0.034659 0.041083
v -0.004500 0.034659 0.041083
v 0.004500 0.034289 0.041614
v -0.004500 0.034289 0.041614
v 0.004500 0.034234 0.042259
v -0.004500 0.034234 0.042259
v 0.004500 0.034509 0.042845
v -0.004500 0.034509 0.042845
v 0.004500 0.035040 0.043214
v -0.004500 0.035040 0.043214
v 0.004500 0.035685 0.043269
v -0.004500 0.035685 0.043269
v 0.004500 0.036271 0.042994
v -0.004500 0.036271 0.042994
v 0.004500 0.036641 0.042463
v -0.004500 0.036641 0.042463
v 0.004500 0.036695 0.041818
v -0.004500 0.036695 0.041818
v 0.004500 0.036420 0.041233
v -0.004500 0.036420 0.041233
v 0.004500 0.035889 0.040863
v -0.004500 0.035889 0.040863
v 0.004500 0.035244 0.040808
v -0.004500 0.035244 0.040808
v -0.004500 0.039530 0.046452
v -0.004500 0.037776 0.047576
v -0.004500 0.035742 0.048032
v -0.004500 0.033676 0.047766
v -0.004500 0.031825 0.046808
v -0.004500 0.030413 0.045276
v -0.004500 0.029610 0.043353
v -0.004500 0.029514 0.041271
v 0.004500 0.031825 0.046808
v 0.004500 0.030413 0.045276
v 0.004500 0.029514 0.041271
v 0.004500 0.029610 0.043353
v 0.004500 0.039530 0.046452
v 0.004500 0.037776 0.047576
v 0.004500 0.035742 0.048032
v 0.004500 0.033676 0.047766
vn 1.0000 0.0000 0.0000
vn 0.0000 -0.8882 -0.4594
vn 0.0000 0.8882 0.4594
vn 0.0000 -0.0845 0.9964
vn -1.0000 -0.0000 0.0000
vn 0.0000 -0.2563 0.9666
vn 0.0000 -0.5714 0.8207
vn 0.0000 -0.8176 0.5757
vn 0.0000 -0.9652 0.2614
vn 0.0000 -0.9964 -0.0845
vn 0.0000 -0.9074 -0.4202
vn 0.0000 -0.7090 -0.7052
vn 0.0000 -0.4250 -0.9052
vn 0.0000 -0.0898 -0.9960
vn 0.0000 0.0845 -0.9964
vn 0.0000 0.7987 0.6017
vn 0.0000 0.9807 0.1955
vn 0.0000 0.9684 -0.2493
vn 0.0000 0.7643 -0.6448
vn 0.0000 0.4089 -0.9126
vn 0.0000 -0.0276 -0.9996
vn 0.0000 -0.4586 -0.8887
vn 0.0000 -0.7987 -0.6017
vn 0.0000 -0.9807 -0.1955
vn 0.0000 -0.9684 0.2493
vn 0.0000 -0.7643 0.6448
vn 0.0000 -0.4089 0.9126
vn 0.0000 0.0276 0.9996
vn 0.0000 0.4586 0.8887
vn 0.0000 -0.4594 0.8882
vn 0.0000 0.4594 -0.8882
vn 0.0000 0.8207 0.5714
vn 0.0000 0.9964 0.0845
vn 0.0000 0.9052 -0.4250
vn 0.0000 0.5714 -0.8207
vn 0.0000 -0.8207 -0.5714
vn 0.0000 -0.9052 0.4250
vn 0.0000 0.4250 0.9052
vn 0.0000 -0.9545 -0.2982
vn 0.0000 -0.9989 0.0463
vn 0.0000 -0.9229 0.3851
vn 0.0000 -0.7355 0.6775
vn 0.0000 -0.1279 0.9918
vn 0.0000 0.2190 0.9757
vn 0.0000 0.5395 0.8420
vn 0.0000 0.7950 0.6067
vn 0.0000 0.1818 -0.9833
vn 0.0000 0.3701 -0.9290
vn 0.0000 -0.2773 0.9608
vn 0.0000 -0.6239 0.7815
vn 0.0000 -0.8754 0.4833
vn 0.0000 -0.8755 0.4833
vn 0.0000 -0.9938 0.1115
vn 0.0000 -0.9608 -0.2773
vn 0.0000 0.6239 -0.7815
vn 0.0000 0.8754 -0.4833
vn 0.0000 0.8755 -0.4833
vn 0.0000 0.9938 -0.1115
vn 0.0000 0.9608 0.2773
usemtl None
s off
f 1//1 2//1 3//1
f 4//1 5//1 6//1
f 7//1 8//1 9//1
f 9//1 8//1 4//1
f 6//1 5//1 10//1
f 10//1 5//1 11//1
f 10//1 11//1 12//1
f 13//1 14//1 15//1
f 15//1 14//1 16//1
f 15//1 16//1 17//1
f 17//1 16//1 18//1
f 17//1 18//1 19//1
f 19//1 18//1 20//1
f 19//1 20//1 2//1
f 2//1 20//1 21//1
f 2//1 21//1 3//1
f 22//1 23//1 24//1
f 24//1 23//1 25//1
f 24//1 25//1 26//1
f 26//1 25//1 27//1
f 26//1 27//1 28//1
f 28//1 27//1 1//1
f 28//1 1//1 29//1
f 29//1 1//1 3//1
f 6//1 30//1 4//1
f 4//1 30//1 31//1
f 4//1 31//1 23//1
f 15//1 9//1 13//1
f 13//1 9//1 4//1
f 13//1 4//1 32//1
f 32//1 4//1 23//1
f 32//1 23//1 33//1
f 33//1 23//1 22//1
f 34//2 35//2 36//2
f 10//2 12//2 37//2
f 38//2 39//2 37//2
f 37//2 39//2 34//2
f 37//2 34//2 10//2
f 10//2 34//2 36//2
f 40//3 11//3 5//3
f 41//3 42//3 43//3
f 44//3 45//3 43//3
f 43//3 45//3 40//3
f 43//3 40//3 41//3
f 41//3 40//3 5//3
f 46//4 1//4 27//4
f 47//4 48//4 49//4
f 50//4 51//4 49//4
f 49//4 51//4 46//4
f 49//4 46//4 47//4
f 47//4 46//4 27//4
f 52//5 53//5 54//5
f 55//5 56//5 57//5
f 57//5 56//5 58//5
f 57//5 58//5 59//5
f 59//5 58//5 60//5
f 59//5 60//5 53//5
f 53//5 60//5 61//5
f 53//5 61//5 54//5
f 62//5 63//5 64//5
f 64//5 63//5 52//5
f 65//5 66//5 64//5
f 64//5 66//5 67//5
f 64//5 67//5 41//5
f 41//5 67//5 68//5
f 41//5 68//5 42//5
f 42//5 68//5 36//5
f 42//5 36//5 35//5
f 48//5 69//5 55//5
f 55//5 69//5 70//5
f 55//5 70//5 56//5
f 54//5 71//5 52//5
f 52//5 71//5 72//5
f 52//5 72//5 64//5
f 64//5 72//5 73//5
f 64//5 73//5 65//5
f 65//5 73//5 74//5
f 65//5 74//5 75//5
f 75//5 74//5 76//5
f 75//5 76//5 47//5
f 47//5 76//5 77//5
f 47//5 77//5 48//5
f 48//5 77//5 78//5
f 48//5 78//5 69//5
f 51//6 50//6 79//6
f 51//6 79//6 80//6
f 80//7 79//7 81//7
f 80//7 81//7 82//7
f 82//8 81//8 83//8
f 82//8 83//8 84//8
f 84//9 83//9 85//9
f 84//9 85//9 86//9
f 86//10 85//10 87//10
f 86//10 87//10 88//10
f 88//11 87//11 89//11
f 88//11 89//11 90//11
f 90//12 89//12 91//12
f 90//12 91//12 92//12
f 92//13 91//13 93//13
f 92//13 93//13 94//13
f 94//14 93//14 95//14
f 94//14 95//14 96//14
f 19//15 2//15 57//15
f 57//15 2//15 97//15
f 55//15 57//15 98//15
f 98//15 57//15 97//15
f 98//15 97//15 95//15
f 95//15 97//15 96//15
f 99//16 100//16 101//16
f 101//16 100//16 102//16
f 101//17 102//17 103//17
f 103//17 102//17 104//17
f 103//18 104//18 105//18
f 105//18 104//18 106//18
f 105//19 106//19 107//19
f 107//19 106//19 108//19
f 107//20 108//20 109//20
f 109//20 108//20 110//20
f 109//21 110//21 111//21
f 111//21 110//21 112//21
f 111//22 112//22 113//22
f 113//22 112//22 114//22
f 113//23 114//23 115//23
f 115//23 114//23 116//23
f 115//24 116//24 117//24
f 117//24 116//24 118//24
f 117//25 118//25 119//25
f 119//25 118//25 120//25
f 119//26 120//26 121//26
f 121//26 120//26 122//26
f 121//27 122//27 123//27
f 123//27 122//27 124//27
f 123//28 124//28 125//28
f 125//28 124//28 126//28
f 125//29 126//29 99//29
f 99//29 126//29 100//29
f 127//1 128//1 129//1
f 129//1 128//1 130//1
f 129//1 130//1 131//1
f 131//1 130//1 132//1
f 131//1 132//1 133//1
f 133//1 132//1 134//1
f 133//1 134//1 135//1
f 135//1 134//1 136//1
f 135//1 136//1 137//1
f 137//1 136//1 138//1
f 137//1 138//1 139//1
f 138//1 140//1 139//1
f 139//1 140//1 141//1
f 139//1 141//1 142//1
f 142//1 141//1 143//1
f 142//1 143//1 144//1
f 144//1 143//1 145//1
f 144//1 145//1 146//1
f 146//1 145//1 147//1
f 146//1 147//1 148//1
f 148//1 147//1 149//1
f 148//1 149//1 150//1
f 150//1 149//1 151//1
f 150//1 151//1 127//1
f 127//1 151//1 152//1
f 127//1 152//1 128//1
f 153//5 154//5 155//5
f 155//5 154//5 156//5
f 155//5 156//5 157//5
f 157//5 156//5 158//5
f 157//5 158//5 159//5
f 159//5 158//5 160//5
f 159//5 160//5 161//5
f 161//5 160//5 162//5
f 161//5 162//5 163//5
f 163//5 162//5 164//5
f 163//5 164//5 165//5
f 164//5 166//5 165//5
f 165//5 166//5 167//5
f 165//5 167//5 168//5
f 168//5 167//5 169//5
f 168//5 169//5 170//5
f 170//5 169//5 171//5
f 170//5 171//5 172//5
f 172//5 171//5 173//5
f 172//5 173//5 174//5
f 174//5 173//5 175//5
f 174//5 175//5 176//5
f 176//5 175//5 177//5
f 176//5 177//5 153//5
f 153//5 177//5 178//5
f 153//5 178//5 154//5
f 134//22 33//22 136//22
f 136//22 33//22 22//22
f 136//21 22//21 138//21
f 138//21 22//21 24//21
f 138//20 24//20 140//20
f 140//20 24//20 26//20
f 140//19 26//19 141//19
f 141//19 26//19 28//19
f 141//18 28//18 143//18
f 143//18 28//18 29//18
f 143//17 29//17 145//17
f 145//17 29//17 3//17
f 145//16 3//16 147//16
f 147//16 3//16 21//16
f 147//29 21//29 149//29
f 149//29 21//29 20//29
f 149//28 20//28 151//28
f 151//28 20//28 18//28
f 151//27 18//27 152//27
f 152//27 18//27 16//27
f 152//26 16//26 128//26
f 128//26 16//26 14//26
f 128//25 14//25 130//25
f 130//25 14//25 13//25
f 130//24 13//24 132//24
f 132//24 13//24 32//24
f 132//23 32//23 134//23
f 134//23 32//23 33//23
f 175//16 56//16 177//16
f 177//16 56//16 70//16
f 177//17 70//17 178//17
f 178//17 70//17 69//17
f 178//18 69//18 154//18
f 154//18 69//18 78//18
f 154//19 78//19 156//19
f 156//19 78//19 77//19
f 156//20 77//20 158//20
f 158//20 77//20 76//20
f 158//21 76//21 160//21
f 160//21 76//21 74//21
f 160//22 74//22 162//22
f 162//22 74//22 73//22
f 162//23 73//23 164//23
f 164//23 73//23 72//23
f 164//24 72//24 166//24
f 166//24 72//24 71//24
f 166//25 71//25 167//25
f 167//25 71//25 54//25
f 167//26 54//26 169//26
f 169//26 54//26 61//26
f 169//27 61//27 171//27
f 171//27 61//27 60//27
f 171//28 60//28 173//28
f 173//28 60//28 58//28
f 173//29 58//29 175//29
f 175//29 58//29 56//29
f 50//5 49//5 114//5
f 114//5 112//5 50//5
f 50//5 112//5 110//5
f 50//5 110//5 79//5
f 79//5 110//5 108//5
f 100//5 89//5 102//5
f 102//5 89//5 87//5
f 102//5 87//5 104//5
f 104//5 87//5 85//5
f 104//5 85//5 106//5
f 106//5 85//5 83//5
f 106//5 83//5 108//5
f 108//5 83//5 81//5
f 108//5 81//5 79//5
f 122//5 98//5 124//5
f 124//5 98//5 95//5
f 124//5 95//5 126//5
f 126//5 95//5 93//5
f 126//5 93//5 100//5
f 100//5 93//5 91//5
f 100//5 91//5 89//5
f 122//5 120//5 98//5
f 98//5 120//5 118//5
f 98//5 118//5 49//5
f 49//5 118//5 116//5
f 49//5 116//5 114//5
f 55//10 98//10 48//10
f 48//10 98//10 49//10
f 117//1 97//1 115//1
f 115//1 97//1 46//1
f 107//1 109//1 51//1
f 51//1 109//1 111//1
f 51//1 111//1 46//1
f 46//1 111//1 113//1
f 46//1 113//1 115//1
f 117//1 119//1 97//1
f 97//1 119//1 121//1
f 97//1 121//1 96//1
f 96//1 121//1 123//1
f 96//1 123//1 94//1
f 94//1 123//1 125//1
f 94//1 125//1 92//1
f 92//1 125//1 99//1
f 92//1 99//1 90//1
f 90//1 99//1 101//1
f 51//1 80//1 107//1
f 107//1 80//1 82//1
f 107//1 82//1 105//1
f 105//1 82//1 84//1
f 105//1 84//1 103//1
f 103//1 84//1 86//1
f 103//1 86//1 101//1
f 101//1 86//1 88//1
f 101//1 88//1 90//1
f 46//10 97//10 1//10
f 1//10 97//10 2//10
f 65//30 75//30 23//30
f 23//30 75//30 25//30
f 9//31 15//31 52//31
f 52//31 15//31 53//31
f 179//32 180//32 181//32
f 181//32 180//32 182//32
f 181//33 182//33 183//33
f 183//33 182//33 184//33
f 183//34 184//34 185//34
f 185//34 184//34 186//34
f 185//35 186//35 187//35
f 187//35 186//35 188//35
f 187//15 188//15 189//15
f 189//15 188//15 190//15
f 189//13 190//13 191//13
f 191//13 190//13 192//13
f 191//36 192//36 193//36
f 193//36 192//36 194//36
f 193//10 194//10 195//10
f 195//10 194//10 196//10
f 195//37 196//37 197//37
f 197//37 196//37 198//37
f 197//7 198//7 199//7
f 199//7 198//7 200//7
f 199//4 200//4 201//4
f 201//4 200//4 202//4
f 201//38 202//38 179//38
f 179//38 202//38 180//38
f 43//5 34//5 200//5
f 200//5 198//5 43//5
f 43//5 198//5 196//5
f 43//5 196//5 44//5
f 44//5 196//5 194//5
f 44//5 194//5 203//5
f 203//5 194//5 192//5
f 203//5 192//5 204//5
f 204//5 192//5 190//5
f 204//5 190//5 205//5
f 205//5 190//5 206//5
f 206//5 190//5 188//5
f 206//5 188//5 207//5
f 207//5 188//5 186//5
f 207//5 186//5 208//5
f 208//5 186//5 209//5
f 209//5 186//5 184//5
f 209//5 184//5 210//5
f 210//5 184//5 182//5
f 210//5 182//5 39//5
f 39//5 182//5 180//5
f 39//5 180//5 34//5
f 34//5 180//5 202//5
f 34//5 202//5 200//5
f 191//1 193//1 45//1
f 45//1 193//1 40//1
f 187//1 211//1 185//1
f 185//1 211//1 212//1
f 185//1 212//1 183//1
f 193//1 195//1 40//1
f 40//1 195//1 197//1
f 40//1 197//1 37//1
f 197//1 199//1 37//1
f 37//1 199//1 201//1
f 37//1 201//1 38//1
f 201//1 179//1 38//1
f 38//1 179//1 181//1
f 38//1 181//1 213//1
f 213//1 181//1 183//1
f 213//1 183//1 214//1
f 214//1 183//1 212//1
f 45//1 215//1 191//1
f 191//1 215//1 216//1
f 191//1 216//1 189//1
f 189//1 216//1 217//1
f 189//1 217//1 187//1
f 187//1 217//1 218//1
f 187//1 218//1 211//1
f 39//39 38//39 213//39
f 39//39 213//39 210//39
f 210//40 213//40 214//40
f 210//40 214//40 209//40
f 209//41 214//41 212//41
f 209//41 212//41 208//41
f 208//42 212//42 211//42
f 208//42 211//42 207//42
f 207//30 211//30 218//30
f 207//30 218//30 206//30
f 206//43 218//43 217//43
f 206//43 217//43 205//43
f 205//44 217//44 216//44
f 205//44 216//44 204//44
f 204//45 216//45 215//45
f 204//45 215//45 203//45
f 203//46 215//46 45//46
f 203//46 45//46 44//46
f 19//47 57//47 59//47
f 19//47 59//47 17//47
f 17//48 59//48 53//48
f 17//48 53//48 15//48
f 47//49 27//49 75//49
f 75//49 27//49 25//49
f 65//50 23//50 66//50
f 66//50 23//50 31//50
f 66//51 31//51 67//51
f 67//52 31//52 30//52
f 67//53 30//53 68//53
f 68//53 30//53 6//53
f 68//54 6//54 36//54
f 36//54 6//54 10//54
f 9//55 52//55 63//55
f 9//55 63//55 7//55
f 7//56 63//56 62//56
f 7//57 62//57 8//57
f 8//58 62//58 64//58
f 8//58 64//58 4//58
f 4//59 64//59 41//59
f 4//59 41//59 5//59
f 42//30 35//30 43//30
f 43//30 35//30 34//30
f 37//30 12//30 40//30
f 40//30 12//30 11//30
f 161//13 133//13 159//13
f 159//13 133//13 135//13
f 159//15 135//15 157//15
f 157//15 135//15 137//15
f 157//35 137//35 155//35
f 155//35 137//35 139//35
f 155//34 139//34 153//34
f 153//34 139//34 142//34
f 153//33 142//33 176//33
f 176//33 142//33 144//33
f 176//32 144//32 174//32
f 174//32 144//32 146//32
f 174//38 146//38 172//38
f 172//38 146//38 148//38
f 172//4 148//4 170//4
f 170//4 148//4 150//4
f 170//7 150//7 168//7
f 168//7 150//7 127//7
f 168//37 127//37 165//37
f 165//37 127//37 129//37
f 165//10 129//10 163//10
f 163//10 129//10 131//10
f 163//36 131//36 161//36
f 161//36 131//36 133//36
