# Blender v2.83.20 OBJ File: ''
# www.blender.org
mtllib end_tool.mtl
o End_Tool
v -0.037595 0.003200 0.000000
v -0.037595 0.003200 -0.027000
v -0.037595 -0.003200 -0.027000
v -0.037595 -0.003200 0.000000
v -0.036513 -0.009507 -0.027000
v 0.000000 0.000000 -0.027000
v -0.036513 0.009507 0.000000
v 0.000000 0.000000 0.000000
v -0.036513 0.009507 -0.027000
v -0.036513 -0.009507 0.000000
v -0.034381 -0.015541 -0.027000
v 0.037731 0.000000 -0.027000
v 0.037188 -0.006377 -0.027000
v 0.032939 0.018401 -0.027000
v 0.035575 0.012570 -0.027000
v 0.037188 0.006377 -0.027000
v 0.019783 0.032129 -0.027000
v 0.024928 0.028323 -0.027000
v 0.029356 0.023703 -0.027000
v 0.001601 0.037697 -0.027000
v 0.007949 0.036884 -0.027000
v 0.014068 0.035010 -0.027000
v -0.016987 0.033691 -0.027000
v -0.011048 0.036077 -0.027000
v -0.004792 0.037425 -0.027000
v -0.031260 0.021128 -0.027000
v -0.027240 0.026107 -0.027000
v -0.022436 0.030335 -0.027000
v -0.034381 0.015541 -0.027000
v -0.022436 -0.030335 -0.027000
v -0.027240 -0.026107 -0.027000
v -0.031260 -0.021128 -0.027000
v -0.004792 -0.037425 -0.027000
v -0.011048 -0.036077 -0.027000
v -0.016987 -0.033691 -0.027000
v 0.014068 -0.035010 -0.027000
v 0.007949 -0.036884 -0.027000
v 0.001601 -0.037697 -0.027000
v 0.029356 -0.023703 -0.027000
v 0.024928 -0.028323 -0.027000
v 0.019783 -0.032129 -0.027000
v 0.035575 -0.012570 -0.027000
v 0.032939 -0.018401 -0.027000
v -0.034381 0.015541 0.000000
v 0.037731 -0.000000 0.000000
v 0.037188 0.006377 0.000000
v 0.032939 -0.018401 0.000000
v 0.035575 -0.012570 0.000000
v 0.037188 -0.006377 0.000000
v 0.019783 -0.032129 0.000000
v 0.024928 -0.028323 0.000000
v 0.029356 -0.023703 0.000000
v 0.001601 -0.037697 0.000000
v 0.007949 -0.036884 0.000000
v 0.014068 -0.035010 0.000000
v -0.016987 -0.033691 0.000000
v -0.011048 -0.036077 0.000000
v -0.004792 -0.037425 0.000000
v -0.031260 -0.021128 0.000000
v -0.027240 -0.026107 0.000000
v -0.022436 -0.030335 0.000000
v -0.034381 -0.015541 0.000000
v -0.022436 0.030335 0.000000
v -0.027240 0.026107 0.000000
v -0.031260 0.021128 0.000000
v -0.004792 0.037425 0.000000
v -0.011048 0.036077 0.000000
v -0.016987 0.033691 0.000000
v 0.014068 0.035010 0.000000
v 0.007949 0.036884 0.000000
v 0.001601 0.037697 0.000000
v 0.029356 0.023703 0.000000
v 0.024928 0.028323 0.000000
v 0.019783 0.032129 0.000000
v 0.035575 0.012570 0.000000
v 0.032939 0.018401 0.000000
v -0.003198 -0.037595 -0.022785
v -0.004792 -0.037425 -0.022028
v -0.000000 -0.037731 -0.023349
v -0.001629 -0.037696 -0.023206
v -0.009208 -0.036590 -0.015623
v -0.009350 -0.036554 -0.013994
v -0.007165 -0.037044 -0.020007
v -0.008097 -0.036852 -0.018675
v -0.008787 -0.036693 -0.017195
v -0.006010 -0.037249 -0.021162
v 0.009350 -0.036554 -0.013996
v 0.009208 -0.036590 -0.015623
v 0.008786 -0.036694 -0.017196
v 0.007069 -0.037063 -0.020119
v 0.006010 -0.037249 -0.021162
v 0.004676 -0.037440 -0.022096
v 0.003198 -0.037595 -0.022785
v 0.008097 -0.036852 -0.018675
v 0.001601 -0.037697 -0.023211
v -0.001624 -0.037696 -0.004792
v -0.000000 -0.037731 -0.004650
v 0.001601 -0.037697 -0.004788
v 0.003198 -0.037595 -0.005214
v 0.004671 -0.037440 -0.005901
v 0.006010 -0.037249 -0.006838
v 0.007065 -0.037063 -0.007876
v 0.007949 -0.036884 -0.009078
v 0.008783 -0.036694 -0.010796
v 0.009208 -0.036590 -0.012376
v 0.008097 -0.036852 -0.009325
v -0.009208 -0.036590 -0.012376
v -0.008783 -0.036694 -0.010795
v -0.008097 -0.036852 -0.009325
v -0.007159 -0.037045 -0.007986
v -0.006010 -0.037249 -0.006838
v -0.003198 -0.037595 -0.005214
v -0.004792 -0.037425 -0.005972
v -0.003198 -0.052000 -0.022785
v -0.006010 -0.052000 -0.021162
v 0.003198 -0.052000 -0.022785
v -0.000000 -0.052000 -0.023349
v -0.009208 -0.052000 -0.015623
v -0.009208 -0.052000 -0.012376
v -0.008097 -0.052000 -0.018675
v 0.009208 -0.052000 -0.012376
v 0.009208 -0.052000 -0.015623
v 0.008097 -0.052000 -0.018675
v 0.006010 -0.052000 -0.021162
v -0.003198 -0.052000 -0.005214
v -0.000000 -0.052000 -0.004650
v 0.003198 -0.052000 -0.005214
v 0.006010 -0.052000 -0.006838
v 0.008097 -0.052000 -0.009325
v -0.008097 -0.052000 -0.009325
v -0.006010 -0.052000 -0.006838
v -0.000000 -0.052000 -0.014000
vn -1.0000 0.0000 0.0000
vn -0.9856 -0.1690 0.0000
vn -0.0000 0.0000 -1.0000
vn -0.9856 0.1690 0.0000
vn 0.0000 0.0000 1.0000
vn -0.9429 -0.3331 0.0000
vn -0.9429 0.3331 0.0000
vn -0.8730 -0.4877 0.0000
vn 0.9964 -0.0848 0.0000
vn 0.9964 0.0848 0.0000
vn 0.9677 -0.2520 0.0000
vn 0.9112 0.4119 0.0000
vn 0.8285 0.5600 0.0000
vn 0.9677 0.2520 0.0000
vn 0.5946 0.8040 0.0000
vn 0.4502 0.8929 0.0000
vn 0.7220 0.6919 0.0000
vn 0.1270 0.9919 0.0000
vn -0.0424 0.9991 0.0000
vn 0.2928 0.9562 0.0000
vn -0.3729 0.9279 0.0000
vn -0.5243 0.8515 0.0000
vn -0.2107 0.9776 0.0000
vn -0.7780 0.6282 0.0000
vn -0.8730 0.4877 0.0000
vn -0.6607 0.7507 0.0000
vn -0.6607 -0.7507 0.0000
vn -0.5243 -0.8515 0.0000
vn -0.7780 -0.6282 0.0000
vn -0.1059 -0.9944 0.0000
vn -0.2107 -0.9776 0.0000
vn -0.0424 -0.9987 -0.0279
vn -0.0259 -0.9984 -0.0496
vn -0.0679 -0.9976 -0.0145
vn -0.2606 -0.9654 -0.0014
vn -0.2198 -0.9755 -0.0129
vn -0.2369 -0.9715 -0.0064
vn -0.2499 -0.9683 -0.0032
vn -0.1752 -0.9834 -0.0463
vn -0.1988 -0.9797 -0.0251
vn -0.3729 -0.9279 0.0000
vn -0.2704 -0.9628 0.0000
vn 0.2987 -0.9543 -0.0049
vn 0.2824 -0.9592 -0.0126
vn 0.2928 -0.9561 -0.0064
vn 0.3110 -0.9504 0.0000
vn 0.4502 -0.8929 0.0000
vn 0.1762 -0.9843 -0.0030
vn 0.1499 -0.9886 -0.0120
vn 0.1194 -0.9923 -0.0328
vn 0.1270 -0.9916 -0.0242
vn 0.2242 -0.9745 -0.0002
vn 0.2007 -0.9797 0.0002
vn 0.0636 -0.9980 0.0000
vn 0.0212 -0.9998 0.0000
vn 0.7220 -0.6919 0.0000
vn 0.8285 -0.5600 0.0000
vn 0.5946 -0.8040 0.0000
vn 0.9112 -0.4119 0.0000
vn -0.0424 -0.9987 0.0284
vn -0.0228 -0.9996 0.0152
vn 0.1270 -0.9919 0.0000
vn 0.0801 -0.9948 0.0627
vn 0.1174 -0.9927 0.0284
vn 0.1488 -0.9888 0.0106
vn 0.1759 -0.9844 0.0027
vn 0.1990 -0.9800 0.0000
vn 0.2928 -0.9562 0.0000
vn 0.2810 -0.9596 0.0122
vn 0.2979 -0.9546 0.0049
vn 0.2557 -0.9664 0.0271
vn 0.2653 -0.9640 0.0205
vn -0.2492 -0.9684 0.0031
vn -0.2360 -0.9717 0.0060
vn -0.2185 -0.9758 0.0119
vn -0.1968 -0.9802 0.0230
vn -0.2107 -0.9775 0.0123
vn -0.2602 -0.9656 0.0013
vn -0.0671 -0.9977 0.0120
vn -0.1432 -0.9897 0.0000
vn -0.2591 0.0000 -0.9658
vn -0.4292 0.0000 -0.9032
vn -0.5000 -0.0097 -0.8660
vn -0.5795 0.0000 -0.8149
vn 0.0864 -0.0200 -0.9961
vn 0.1736 0.0000 -0.9848
vn -0.0875 0.0000 -0.9962
vn -0.1736 -0.0099 -0.9848
vn -0.9660 0.0000 -0.2587
vn -0.9962 0.0000 -0.0869
vn -1.0000 -0.0092 0.0000
vn -0.9962 0.0000 0.0875
vn -0.7073 0.0000 -0.7070
vn -0.7660 -0.0095 -0.6428
vn -0.8193 0.0000 -0.5734
vn -0.9064 0.0000 -0.4225
vn -0.9397 -0.0093 -0.3420
vn 0.9962 0.0000 0.0874
vn 1.0000 -0.0092 0.0000
vn 0.9962 0.0000 -0.0870
vn 0.9659 0.0000 -0.2588
vn 0.9397 -0.0093 -0.3420
vn 0.9063 0.0000 -0.4226
vn 0.8147 0.0000 -0.5799
vn 0.7660 -0.0094 -0.6428
vn 0.7016 0.0000 -0.7125
vn 0.5737 0.0000 -0.8191
vn 0.4243 -0.0192 -0.9053
vn 0.2577 0.0000 -0.9662
vn 0.5000 0.0000 -0.8660
vn -0.0876 -0.0197 0.9960
vn -0.2588 0.0000 0.9659
vn 0.0860 0.0000 0.9963
vn -0.1736 0.0000 0.9848
vn 0.2577 0.0000 0.9662
vn 0.1736 -0.0099 0.9848
vn 0.4224 0.0000 0.9064
vn 0.5000 -0.0098 0.8660
vn 0.5734 0.0000 0.8193
vn 0.7014 0.0000 0.7127
vn 0.8056 -0.0018 0.5924
vn 0.7660 -0.0094 0.6428
vn 0.8582 -0.0000 0.5133
vn 0.9061 0.0000 0.4230
vn 0.9397 -0.0093 0.3420
vn 0.9658 0.0000 0.2592
vn -0.9658 0.0000 0.2592
vn -0.9397 -0.0093 0.3420
vn -0.9061 0.0000 0.4230
vn -0.8190 0.0000 0.5738
vn -0.7660 -0.0095 0.6428
vn -0.7069 0.0000 0.7073
vn -0.5795 0.0000 0.8149
vn -0.5000 0.0000 0.8660
vn -0.4307 -0.0176 0.9023
vn 0.0000 -1.0000 0.0000
usemtl None
s off
f 1//1 2//1 3//1
f 1//1 3//1 4//1
f 4//2 3//2 5//2
f 6//3 5//3 3//3
f 6//3 3//3 2//3
f 7//4 2//4 1//4
f 8//5 7//5 1//5
f 8//5 1//5 4//5
f 7//4 9//4 2//4
f 2//3 9//3 6//3
f 4//2 5//2 10//2
f 4//5 10//5 8//5
f 10//6 5//6 11//6
f 11//3 5//3 6//3
f 12//3 13//3 6//3
f 14//3 15//3 6//3
f 6//3 15//3 16//3
f 6//3 16//3 12//3
f 17//3 18//3 6//3
f 6//3 18//3 19//3
f 6//3 19//3 14//3
f 20//3 21//3 6//3
f 6//3 21//3 22//3
f 6//3 22//3 17//3
f 23//3 24//3 6//3
f 6//3 24//3 25//3
f 6//3 25//3 20//3
f 26//3 27//3 6//3
f 6//3 27//3 28//3
f 6//3 28//3 23//3
f 6//3 9//3 29//3
f 6//3 29//3 26//3
f 30//3 31//3 6//3
f 6//3 31//3 32//3
f 6//3 32//3 11//3
f 33//3 34//3 6//3
f 6//3 34//3 35//3
f 6//3 35//3 30//3
f 36//3 37//3 6//3
f 6//3 37//3 38//3
f 6//3 38//3 33//3
f 39//3 40//3 6//3
f 6//3 40//3 41//3
f 6//3 41//3 36//3
f 13//3 42//3 6//3
f 6//3 42//3 43//3
f 6//3 43//3 39//3
f 44//7 9//7 7//7
f 44//5 7//5 8//5
f 45//5 46//5 8//5
f 47//5 48//5 8//5
f 8//5 48//5 49//5
f 8//5 49//5 45//5
f 50//5 51//5 8//5
f 8//5 51//5 52//5
f 8//5 52//5 47//5
f 53//5 54//5 8//5
f 8//5 54//5 55//5
f 8//5 55//5 50//5
f 56//5 57//5 8//5
f 8//5 57//5 58//5
f 8//5 58//5 53//5
f 59//5 60//5 8//5
f 8//5 60//5 61//5
f 8//5 61//5 56//5
f 8//5 10//5 62//5
f 8//5 62//5 59//5
f 63//5 64//5 8//5
f 8//5 64//5 65//5
f 8//5 65//5 44//5
f 66//5 67//5 8//5
f 8//5 67//5 68//5
f 8//5 68//5 63//5
f 69//5 70//5 8//5
f 8//5 70//5 71//5
f 8//5 71//5 66//5
f 72//5 73//5 8//5
f 8//5 73//5 74//5
f 8//5 74//5 69//5
f 46//5 75//5 8//5
f 8//5 75//5 76//5
f 8//5 76//5 72//5
f 44//7 29//7 9//7
f 10//6 11//6 62//6
f 62//8 11//8 32//8
f 49//9 13//9 12//9
f 49//9 12//9 45//9
f 45//10 12//10 16//10
f 48//11 42//11 13//11
f 48//11 13//11 49//11
f 75//12 15//12 14//12
f 75//12 14//12 76//12
f 76//13 14//13 19//13
f 46//14 16//14 15//14
f 46//14 15//14 75//14
f 45//10 16//10 46//10
f 73//15 18//15 17//15
f 73//15 17//15 74//15
f 74//16 17//16 22//16
f 72//17 19//17 18//17
f 72//17 18//17 73//17
f 76//13 19//13 72//13
f 70//18 21//18 20//18
f 70//18 20//18 71//18
f 71//19 20//19 25//19
f 69//20 22//20 21//20
f 69//20 21//20 70//20
f 74//16 22//16 69//16
f 67//21 24//21 23//21
f 67//21 23//21 68//21
f 68//22 23//22 28//22
f 66//23 25//23 24//23
f 66//23 24//23 67//23
f 71//19 25//19 66//19
f 64//24 27//24 26//24
f 64//24 26//24 65//24
f 65//25 26//25 29//25
f 63//26 28//26 27//26
f 63//26 27//26 64//26
f 68//22 28//22 63//22
f 65//25 29//25 44//25
f 60//27 31//27 30//27
f 60//27 30//27 61//27
f 61//28 30//28 35//28
f 59//29 32//29 31//29
f 59//29 31//29 60//29
f 62//8 32//8 59//8
f 77//30 78//30 33//30
f 33//31 78//31 34//31
f 38//32 79//32 33//32
f 33//33 79//33 80//33
f 33//34 80//34 77//34
f 81//35 82//35 34//35
f 83//36 84//36 34//36
f 34//37 84//37 85//37
f 34//38 85//38 81//38
f 34//39 78//39 86//39
f 34//40 86//40 83//40
f 56//41 35//41 34//41
f 56//41 34//41 57//41
f 57//42 34//42 82//42
f 61//28 35//28 56//28
f 87//43 88//43 36//43
f 36//44 88//44 89//44
f 36//45 89//45 37//45
f 87//46 36//46 55//46
f 55//47 36//47 41//47
f 37//48 90//48 91//48
f 91//49 92//49 37//49
f 37//50 92//50 93//50
f 37//51 93//51 38//51
f 37//52 89//52 94//52
f 37//53 94//53 90//53
f 38//54 93//54 95//54
f 38//55 95//55 79//55
f 51//56 40//56 39//56
f 51//56 39//56 52//56
f 52//57 39//57 43//57
f 50//58 41//58 40//58
f 50//58 40//58 51//58
f 55//47 41//47 50//47
f 47//59 43//59 42//59
f 47//59 42//59 48//59
f 52//57 43//57 47//57
f 58//60 96//60 53//60
f 96//61 97//61 53//61
f 53//55 97//55 98//55
f 53//62 98//62 54//62
f 98//63 99//63 54//63
f 54//64 99//64 100//64
f 54//65 100//65 101//65
f 101//66 102//66 54//66
f 54//67 102//67 103//67
f 54//68 103//68 55//68
f 104//69 105//69 55//69
f 55//70 105//70 87//70
f 55//71 103//71 106//71
f 55//72 106//72 104//72
f 107//73 108//73 57//73
f 57//74 108//74 109//74
f 109//75 110//75 57//75
f 57//76 110//76 111//76
f 57//77 111//77 58//77
f 57//78 82//78 107//78
f 58//79 112//79 96//79
f 58//80 111//80 113//80
f 58//30 113//30 112//30
f 80//81 114//81 77//81
f 77//82 114//82 78//82
f 78//83 114//83 115//83
f 78//84 115//84 86//84
f 95//85 116//85 79//85
f 79//86 116//86 117//86
f 79//87 117//87 80//87
f 80//88 117//88 114//88
f 85//89 118//89 81//89
f 81//90 118//90 82//90
f 82//91 118//91 119//91
f 82//92 119//92 107//92
f 86//93 115//93 83//93
f 83//94 115//94 120//94
f 83//95 120//95 84//95
f 84//96 120//96 85//96
f 85//97 120//97 118//97
f 105//98 121//98 87//98
f 87//99 121//99 122//99
f 87//100 122//100 88//100
f 88//101 122//101 89//101
f 89//102 122//102 123//102
f 89//103 123//103 94//103
f 94//104 123//104 90//104
f 90//105 123//105 124//105
f 90//106 124//106 91//106
f 124//107 92//107 91//107
f 124//108 93//108 92//108
f 95//109 93//109 116//109
f 116//110 93//110 124//110
f 125//111 97//111 96//111
f 125//112 96//112 112//112
f 126//113 98//113 97//113
f 126//114 97//114 125//114
f 127//115 99//115 98//115
f 127//116 98//116 126//116
f 100//117 99//117 127//117
f 127//118 128//118 100//118
f 128//119 101//119 100//119
f 128//120 102//120 101//120
f 129//121 103//121 102//121
f 129//122 102//122 128//122
f 106//123 103//123 129//123
f 106//124 129//124 104//124
f 104//125 129//125 121//125
f 104//126 121//126 105//126
f 107//127 119//127 108//127
f 108//128 119//128 130//128
f 108//129 130//129 109//129
f 109//130 130//130 110//130
f 110//131 130//131 131//131
f 110//132 131//132 111//132
f 131//133 113//133 111//133
f 125//134 112//134 131//134
f 131//135 112//135 113//135
f 115//136 114//136 132//136
f 132//136 114//136 117//136
f 132//136 120//136 115//136
f 116//136 124//136 132//136
f 132//136 117//136 116//136
f 119//136 118//136 132//136
f 132//136 118//136 120//136
f 132//136 130//136 119//136
f 122//136 121//136 132//136
f 132//136 121//136 129//136
f 132//136 123//136 122//136
f 132//136 124//136 123//136
f 132//136 126//136 125//136
f 125//136 131//136 132//136
f 132//136 127//136 126//136
f 128//136 127//136 132//136
f 132//136 129//136 128//136
f 132//136 131//136 130//136
